<?xml version="1.0" encoding="UTF-8" standalone="no"?>
<!-- Created with Inkscape (http://www.inkscape.org/) -->

<svg
   xmlns:dc="http://purl.org/dc/elements/1.1/"
   xmlns:cc="http://creativecommons.org/ns#"
   xmlns:rdf="http://www.w3.org/1999/02/22-rdf-syntax-ns#"
   xmlns:svg="http://www.w3.org/2000/svg"
   xmlns="http://www.w3.org/2000/svg"
   xmlns:sodipodi="http://sodipodi.sourceforge.net/DTD/sodipodi-0.dtd"
   xmlns:inkscape="http://www.inkscape.org/namespaces/inkscape"
   id="svg3570"
   version="1.1"
   inkscape:version="0.91 r13725"
   width="640"
   height="640"
   viewBox="0 0 640 640"
   sodipodi:docname="FB-brown.svg">
  <metadata
     id="metadata3576">
    <rdf:RDF>
      <cc:Work
         rdf:about="">
        <dc:format>image/svg+xml</dc:format>
        <dc:type
           rdf:resource="http://purl.org/dc/dcmitype/StillImage" />
        <dc:title></dc:title>
      </cc:Work>
    </rdf:RDF>
  </metadata>
  <defs
     id="defs3574" />
  <sodipodi:namedview
     pagecolor="#ffffff"
     bordercolor="#666666"
     borderopacity="1"
     objecttolerance="10"
     gridtolerance="10"
     guidetolerance="10"
     inkscape:pageopacity="0"
     inkscape:pageshadow="2"
     inkscape:window-width="1440"
     inkscape:window-height="790"
     id="namedview3572"
     showgrid="false"
     inkscape:zoom="0.36875"
     inkscape:cx="320"
     inkscape:cy="320"
     inkscape:window-x="0"
     inkscape:window-y="1"
     inkscape:window-maximized="1"
     inkscape:current-layer="svg3570" />
  <path
     style="fill:#604432"
     d="M 22.03437,640.87666 C 15.30824,638.47908 8.7982396,632.92607 4.3749997,625.81328 l -3.75000001,-6.03019 -0.32026,-295.52531 C -0.00421031,39.159726 0.06599969,28.549069 2.2945397,23.534665 5.4911497,16.342045 10.47693,10.772188 17.31925,6.7498485 l 5.80575,-3.4129841 296.87498,0 296.875,0 5.8058,3.4129841 c 6.7406,3.9625305 11.7658,9.5249745 14.9851,16.5870155 2.185,4.793392 2.2792,17.164021 2.2792,299.375006 0,282.21097 -0.094,294.58161 -2.2792,299.375 -3.2193,7.06204 -8.2445,12.62449 -14.9851,16.58701 l -5.8058,3.41299 -87.8125,0.34503 -87.8125,0.34503 0,-124.40753 0,-124.40753 40.472,0 c 30.8589,0 40.7771,-0.37113 41.7568,-1.5625 1.5149,-1.84214 13.1845,-89.30754 12.2428,-91.76151 -0.5219,-1.36013 -9.4848,-1.67599 -47.5574,-1.67599 l -46.9142,0 0,-38.01364 c 0,-33.59715 0.2711,-38.8846 2.3333,-45.51034 2.8661,-9.20877 6.4813,-14.44635 12.667,-18.35117 9.1901,-5.8015 17.1319,-6.87485 50.8676,-6.87485 22.5472,0 31.5458,-0.41364 32.6321,-1.5 1.685,-1.685 2.2015,-81.76919 0.5434,-84.24774 -1.4155,-2.11576 -8.3518,-2.81545 -42.5752,-4.2947 -46.1398,-1.994322 -67.0687,0.63046 -89.8098,11.26346 -23.2921,10.89061 -39.1131,26.19066 -50.4339,48.77338 -12.2489,24.43408 -14.9718,42.90371 -14.9734,101.5681 l -10e-4,37.1875 -40.375,0 c -29.7361,0 -40.7703,0.39525 -41.875,1.5 -2.1506,2.15059 -2.1506,89.84941 0,92 1.1047,1.10475 12.1389,1.5 41.875,1.5 l 40.375,0 0,124.375 0,124.375 -157.81253,-0.0549 C 53.76274,642.61147 26.05027,642.30816 22.03437,640.87666 Z"
     id="path3580"
     inkscape:connector-curvature="0" />
</svg>
