<?xml version="1.0" encoding="UTF-8" standalone="no"?>
<!-- Created with Inkscape (http://www.inkscape.org/) -->

<svg
   xmlns:dc="http://purl.org/dc/elements/1.1/"
   xmlns:cc="http://creativecommons.org/ns#"
   xmlns:rdf="http://www.w3.org/1999/02/22-rdf-syntax-ns#"
   xmlns:svg="http://www.w3.org/2000/svg"
   xmlns="http://www.w3.org/2000/svg"
   xmlns:sodipodi="http://sodipodi.sourceforge.net/DTD/sodipodi-0.dtd"
   xmlns:inkscape="http://www.inkscape.org/namespaces/inkscape"
   id="svg3464"
   version="1.1"
   inkscape:version="0.91 r13725"
   width="60"
   height="60"
   viewBox="0 0 60 60"
   sodipodi:docname="Instagram-brown.svg">
  <metadata
     id="metadata3470">
    <rdf:RDF>
      <cc:Work
         rdf:about="">
        <dc:format>image/svg+xml</dc:format>
        <dc:type
           rdf:resource="http://purl.org/dc/dcmitype/StillImage" />
        <dc:title></dc:title>
      </cc:Work>
    </rdf:RDF>
  </metadata>
  <defs
     id="defs3468" />
  <sodipodi:namedview
     pagecolor="#ffffff"
     bordercolor="#666666"
     borderopacity="1"
     objecttolerance="10"
     gridtolerance="10"
     guidetolerance="10"
     inkscape:pageopacity="0"
     inkscape:pageshadow="2"
     inkscape:window-width="1440"
     inkscape:window-height="790"
     id="namedview3466"
     showgrid="false"
     inkscape:zoom="7.8560995"
     inkscape:cx="30"
     inkscape:cy="30"
     inkscape:window-x="0"
     inkscape:window-y="1"
     inkscape:window-maximized="1"
     inkscape:current-layer="svg3464" />
  <path
     style="fill:#604633"
     d="M 14.514381,59.70999 C 10.792097,59.140695 6.7463611,57.162453 4.6045791,54.864402 3.0970871,53.246919 1.8416891,51.034704 0.96450211,48.45 l -0.814502,-2.4 0,-16.05 0,-16.05 0.82179,-2.423523 C 2.8266661,6.0563039 6.0603891,2.8275442 11.55,0.96450233 l 2.4,-0.8145024 16.05,0 16.05,0 2.4,0.8145024 C 53.93961,2.8275442 57.173337,6.0563039 59.028207,11.526477 l 0.82179,2.423523 0,16.05 0,16.05 -0.82179,2.423523 C 57.171497,53.949114 53.92179,57.190866 48.45,59.02584 l -2.4,0.804843 -15,0.05708 c -8.25,0.0314 -15.691028,-0.0486 -16.535619,-0.177777 z M 47.1,53.410302 C 49.941132,52.372926 52.435377,49.825875 53.426367,46.95 l 0.723633,-2.1 0,-14.85 0,-14.85 -0.723633,-2.1 c -0.591975,-1.717921 -1.055928,-2.432293 -2.55,-3.9263659 C 49.382292,7.6295601 48.667923,7.1656079 46.95,6.5736339 l -2.1,-0.723634 -14.85,0 -14.85,0 -2.1,0.723634 C 10.067552,7.6013481 7.6013481,10.067552 6.5736331,13.05 l -0.723633,2.1 0,14.85 0,14.85 0.723633,2.1 c 0.591975,1.717923 1.055927,2.432292 2.55,3.926367 1.4871809,1.487178 2.1885139,1.944141 3.7763669,2.460531 1.0725,0.348789 2.355,0.692043 2.85,0.762786 0.495,0.07074 7.3125,0.104769 15.15,0.07562 14.185509,-0.05276 14.258826,-0.05623 16.2,-0.765003 z M 26.334493,45.134118 C 20.722716,43.773636 16.186247,39.18849 14.851671,33.528081 c -1.95794,-8.304317 3.2706,-16.707782 11.620249,-18.67641 8.304317,-1.95794 16.707782,3.2706 18.676409,11.620249 2.637159,11.185124 -7.633239,21.372743 -18.813836,18.662198 z m 7.734125,-6.254052 C 40.234704,36.057138 41.698578,27.898576 36.9,23.1 c -3.823488,-3.823488 -9.976512,-3.823488 -13.8,0 -3.803593,3.803593 -3.822916,9.977085 -0.04306,13.756941 2.971864,2.971863 7.230378,3.75426 11.011677,2.023125 z M 44.028771,17.230384 C 42.963879,16.652579 42.3,15.339281 42.3,13.810493 c 0,-2.705662 3.297717,-4.4926409 5.610435,-3.040202 2.214687,1.390873 2.479803,4.197436 0.562482,5.954529 -0.860481,0.788573 -1.308927,0.972882 -2.34351,0.963169 -0.703674,-0.0066 -1.648959,-0.212529 -2.100636,-0.457605 z"
     id="path3474"
     inkscape:connector-curvature="0" />
</svg>
