<?xml version="1.0" encoding="UTF-8" standalone="no"?>
<!-- Created with Inkscape (http://www.inkscape.org/) -->

<svg
   xmlns:dc="http://purl.org/dc/elements/1.1/"
   xmlns:cc="http://creativecommons.org/ns#"
   xmlns:rdf="http://www.w3.org/1999/02/22-rdf-syntax-ns#"
   xmlns:svg="http://www.w3.org/2000/svg"
   xmlns="http://www.w3.org/2000/svg"
   xmlns:sodipodi="http://sodipodi.sourceforge.net/DTD/sodipodi-0.dtd"
   xmlns:inkscape="http://www.inkscape.org/namespaces/inkscape"
   id="svg3549"
   version="1.1"
   inkscape:version="0.91 r13725"
   width="60"
   height="50.099998"
   viewBox="0 0 60 50.099998"
   sodipodi:docname="Twitter-brown.svg">
  <metadata
     id="metadata3555">
    <rdf:RDF>
      <cc:Work
         rdf:about="">
        <dc:format>image/svg+xml</dc:format>
        <dc:type
           rdf:resource="http://purl.org/dc/dcmitype/StillImage" />
        <dc:title></dc:title>
      </cc:Work>
    </rdf:RDF>
  </metadata>
  <defs
     id="defs3553" />
  <sodipodi:namedview
     pagecolor="#ffffff"
     bordercolor="#666666"
     borderopacity="1"
     objecttolerance="10"
     gridtolerance="10"
     guidetolerance="10"
     inkscape:pageopacity="0"
     inkscape:pageshadow="2"
     inkscape:window-width="1440"
     inkscape:window-height="790"
     id="namedview3551"
     showgrid="false"
     inkscape:zoom="6.6664309"
     inkscape:cx="30"
     inkscape:cy="25.049999"
     inkscape:window-x="0"
     inkscape:window-y="1"
     inkscape:window-maximized="1"
     inkscape:current-layer="svg3549" />
  <path
     style="fill:#5f4432"
     d="M 11.887629,49.633834 C 8.9201272,49.044202 6.2156992,48.098989 3.2999892,46.632406 c -4.26709601,-2.146323 -4.26733101,-2.124723 0.02495,-2.297445 3.144383,-0.126531 4.169306,-0.299208 6.575046,-1.107759 2.9860008,-1.003572 7.0296408,-3.174735 6.7513488,-3.62502 -0.08934,-0.144558 -0.934482,-0.487272 -1.878091,-0.761586 -2.307084,-0.670689 -3.93812,-1.670084 -5.5661728,-3.410606 -1.483755,-1.586253 -3.043596,-4.366407 -2.732368,-4.869984 0.117381,-0.189927 0.694262,-0.245898 1.435753,-0.139302 0.681742,0.098 1.438121,0.05078 1.680842,-0.104946 0.5135328,-0.329471 0.5616668,-0.27837 -1.225594,-1.301154 -3.264573,-1.868194 -5.869079,-5.721384 -6.179226,-9.141746 -0.09271,-1.022472 -0.0374,-1.86779 0.128953,-1.970601 0.160223,-0.09902 0.995828,0.08765 1.856901,0.414834 0.861072,0.327181 1.696582,0.513915 1.856689,0.414964 0.160106,-0.09895 -0.109594,-0.636279 -0.599334,-1.194062 -3.075074,-3.502317 -4.105236,-8.3639016 -2.721561,-12.843718 0.334476,-1.082909 0.745586,-2.0538726 0.913577,-2.1576968 0.167991,-0.1038242 1.761434,1.2067221 3.540985,2.9123252 3.6034118,3.4536763 7.1127358,5.8042426 10.9895368,7.3608586 2.928684,1.175928 6.287242,2.074401 8.829366,2.362009 l 1.818395,0.205728 0,-2.22572 c 0,-5.4862483 2.400828,-9.6348221 6.950337,-12.0100105 1.842114,-0.96172291 2.008725,-0.99176851 5.499663,-0.99176851 3.384996,0 3.698544,0.051612 5.25,0.86419521 0.9075,0.4753074 2.167827,1.272071 2.800728,1.7705857 1.10733,0.8722079 1.205937,0.8936465 2.614683,0.5684687 1.161807,-0.2681766 3.616008,-1.2855393 5.759589,-2.38757501 0.12375,-0.063621 0.225,0.20664501 0.225,0.60059111 0,0.8327874 -1.448526,3.2528951 -2.788428,4.6587341 l -0.929271,0.9749999 0.795201,0 c 0.437364,0 1.678845,-0.3207444 2.758851,-0.7127655 1.307781,-0.4746986 1.963647,-0.5943962 1.963647,-0.3583709 0,0.5450945 -3.071526,4.1437497 -4.619241,5.4119857 l -1.380759,1.131428 0,2.310996 c 0,8.715594 -4.017324,18.400183 -10.315161,24.866826 -5.260671,5.401674 -11.153034,8.591424 -18.112783,9.805104 -3.173148,0.55335 -10.551254,0.541572 -13.384416,-0.02136 z"
     id="path3559"
     inkscape:connector-curvature="0" />
</svg>
